{"accessors":[{"bufferView":1,"componentType":5126,"count":24,"max":[4687.8876953125,7585.1611328125,2482.85009765625],"min":[0,0,0],"type":"VEC3"},{"bufferView":1,"byteOffset":288,"componentType":5126,"count":24,"max":[1,1,1],"min":[-1,-1,-1],"type":"VEC3"},{"bufferView":0,"componentType":5125,"count":36,"type":"SCALAR"}],"asset":{"extras":{"author":"javier_hidalgo (https://sketchfab.com/javier_hidalgo)","license":"CC-BY-4.0 (http://creativecommons.org/licenses/by/4.0/)","source":"https://sketchfab.com/3d-models/rectangulo-3589b9c4be9046b3b2dc43e07e954f12","title":"Rectangulo"},"generator":"Sketchfab-12.67.0","version":"2.0"},"bufferViews":[{"buffer":0,"byteLength":144,"name":"floatBufferViews","target":34963},{"buffer":0,"byteLength":576,"byteOffset":144,"byteStride":12,"name":"floatBufferViews","target":34962}],"buffers":[{"byteLength":720,"uri":"data:application/octet-stream;base64,"}],"materials":[{"doubleSided":true,"name":"Scene_-_Root","pbrMetallicRoughness":{"metallicFactor":0,"roughnessFactor":0.6}}],"meshes":[{"name":"Object_0","primitives":[{"attributes":{"NORMAL":1,"POSITION":0},"indices":2,"material":0,"mode":4}]}],"nodes":[{"children":[1],"matrix":[1,0,0,0,0,2.220446049250313e-16,-1,0,0,1,2.220446049250313e-16,0,0,0,0,1],"name":"Sketchfab_model"},{"children":[2],"name":"03f6a46c8a934d03b213531b8aca4b39.stl.cleaner.materialmerger.gles"},{"mesh":0,"name":"Object_2"}],"scene":0,"scenes":[{"name":"Sketchfab_Scene","nodes":[0]}]}